<svg width="53" height="54" fill="none" xmlns="http://www.w3.org/2000/svg"><path d="M48.958 14.922a2 2 0 1 1 4-.014 2 2 0 0 1-4 .014ZM48.915 2.923a2 2 0 1 1 4-.014 2 2 0 0 1-4 .014ZM37.042 38.965a2 2 0 1 1 4-.014 2 2 0 0 1-4 .014ZM37 26.965a2 2 0 1 1 4-.014 2 2 0 0 1-4 .014ZM36.958 14.965a2 2 0 1 1 4-.014 2 2 0 0 1-4 .014ZM36.915 2.965a2 2 0 1 1 4-.014 2 2 0 0 1-4 .014ZM25.042 39.007a2 2 0 1 1 4-.014 2 2 0 0 1-4 .014ZM25 27.007a2 2 0 1 1 4-.014 2 2 0 0 1-4 .014ZM24.958 15.007a2 2 0 1 1 4-.014 2 2 0 0 1-4 .014ZM24.916 3.007a2 2 0 1 1 4-.014 2 2 0 0 1-4 .014ZM13.085 51.049a2 2 0 1 1 4-.014 2 2 0 0 1-4 .014ZM13.042 39.05a2 2 0 1 1 4-.015 2 2 0 0 1-4 .014ZM13 27.05a2 2 0 1 1 4-.015 2 2 0 0 1-4 .014ZM12.958 15.05a2 2 0 1 1 4-.015 2 2 0 0 1-4 .014ZM12.915 3.05a2 2 0 1 1 4-.015 2 2 0 0 1-4 .014ZM1.085 51.091a2 2 0 1 1 4-.014 2 2 0 0 1-4 .014ZM1.042 39.091a2 2 0 1 1 4-.014 2 2 0 0 1-4 .014ZM1 27.091a2 2 0 1 1 4-.014 2 2 0 0 1-4 .014ZM.958 15.091a2 2 0 1 1 4-.014 2 2 0 0 1-4 .014ZM.916 3.092a2 2 0 1 1 4-.015 2 2 0 0 1-4 .015Z" fill="#E6A40B"/></svg>