<svg width="53" height="53" fill="none" xmlns="http://www.w3.org/2000/svg"><g opacity=".3" fill="gray" fill-opacity=".3"><path d="M38.158 48.046a2 2 0 1 1 .013 4 2 2 0 0 1-.013-4ZM50.158 48.006a2 2 0 1 1 .013 4 2 2 0 0 1-.013-4ZM14.118 36.125a2 2 0 1 1 .014 4 2 2 0 0 1-.014-4ZM26.118 36.085a2 2 0 1 1 .014 4 2 2 0 0 1-.014-4ZM38.118 36.046a2 2 0 1 1 .014 4 2 2 0 0 1-.014-4ZM50.118 36.006a2 2 0 1 1 .013 4 2 2 0 0 1-.013-4ZM14.079 24.125a2 2 0 1 1 .013 4 2 2 0 0 1-.013-4ZM26.079 24.085a2 2 0 1 1 .013 4 2 2 0 0 1-.013-4ZM38.079 24.046a2 2 0 1 1 .013 4 2 2 0 0 1-.013-4ZM50.079 24.006a2 2 0 1 1 .013 4 2 2 0 0 1-.013-4ZM2.04 12.165a2 2 0 1 1 .012 4 2 2 0 0 1-.013-4ZM14.04 12.125a2 2 0 1 1 .012 4 2 2 0 0 1-.013-4ZM26.04 12.085a2 2 0 1 1 .012 4 2 2 0 0 1-.013-4ZM38.04 12.046a2 2 0 1 1 .012 4 2 2 0 0 1-.013-4ZM50.04 12.007a2 2 0 1 1 .012 4 2 2 0 0 1-.013-4ZM2 .165a2 2 0 1 1 .013 4 2 2 0 0 1-.013-4ZM14 .125a2 2 0 1 1 .013 4 2 2 0 0 1-.013-4ZM26 .086a2 2 0 1 1 .013 4 2 2 0 0 1-.013-4ZM38 .046a2 2 0 1 1 .013 4 2 2 0 0 1-.013-4ZM50 .007a2 2 0 1 1 .013 4 2 2 0 0 1-.013-4Z"/></g></svg>