<svg width="20" height="20" fill="none" xmlns="http://www.w3.org/2000/svg"><path d="m14.052 12.737-2.122-.242a1.66 1.66 0 0 0-1.368.476l-1.538 1.536a12.564 12.564 0 0 1-5.501-5.502L5.066 7.46c.36-.359.535-.86.476-1.37L5.3 3.986A1.671 1.671 0 0 0 3.64 2.508H2.195c-.944 0-1.729.786-1.67 1.728.442 7.132 6.145 12.826 13.268 13.269.943.058 1.729-.726 1.729-1.67V14.39a1.655 1.655 0 0 0-1.47-1.654Z" fill="url(#a)"/><defs><linearGradient id="a" x1="8.021" y1="2.508" x2="8.021" y2="17.508" gradientUnits="userSpaceOnUse"><stop stop-color="#FFBF00"/><stop offset="1" stop-color="#F2A60C"/></linearGradient></defs></svg>